# xmcd CD database file
#
# Track frame offsets:
#	183
#	18678
#	39228
#	52340
#	67905
#	90373
#	108700
#	134273
#	161585
#	174195
#	190223
#	216478
#	238130
#	256085
#	275593
#	291300
#
# Disc length: 4085 seconds
#
# Revision: 5
# Processed by: cddbd v1.5.1PL0 Copyright (c) Steve Scherf et al.
# Submitted via: CDex 1.51
#
DISCID=ed0ff310
DTITLE=Various Artist - Pulstar - The Hits Of Vangelis
DYEAR=1995
DGENRE=New Age
TTITLE0=Pulstar
TTITLE1=Eric's Theme
TTITLE2=Italien Songs
TTITLE3=Rotations Logic
TTITLE4=The Will Of The Wind
TTITLE5=Hymne
TTITLE6=Elsewhere
TTITLE7=Apocalypse Des Animaux
TTITLE8=The Tao Of Love
TTITLE9=To The Unknown Man
TTITLE10=L'Opera Sauvage
TTITLE11=I Hear You Now
TTITLE12=Theme From Antarctica
TTITLE13=I'll Find My Way Home
TTITLE14=Derwish D
TTITLE15=Chariots Of Fire
EXTD=YEAR: 1995
EXTT0=
EXTT1=
EXTT2=
EXTT3=
EXTT4=
EXTT5=
EXTT6=
EXTT7=
EXTT8=
EXTT9=
EXTT10=
EXTT11=
EXTT12=
EXTT13=
EXTT14=
EXTT15=
PLAYORDER=
